# xmcd
#
# Track frame offsets: 
#        150
#        10344
#        23386
#        35427
#        46825
#        59270
#        71222
#        82231
#        94486
#        107740
#        119064
#        131333
#        143797
#        156315
#        167833
#        181179
#        192813
#        203744
#        215949
#        228872
#        240971
#        252941
#        264815
#
# Disc length: 3667 seconds
#
# Revision: 1
# Processed by: cddbd v1.5.2PL0 Copyright (c) Steve Scherf et al.
# Submitted via: ExactAudioCopy v0.99pb5
#
DISCID=410e5117
DTITLE=Lightnin' Hopkins - Lightnin's Boogie
DYEAR=1900
DGENRE=
TTITLE0=Down baby
TTITLE1=L.A. blues
TTITLE2=Big Mama jump
TTITLE3=Let me play with your poodle
TTITLE4=Morning blues
TTITLE5=Mistreated blues
TTITLE6=Daddy will be home one day
TTITLE7=Howling wolf
TTITLE8=Moon rise blues
TTITLE9=Baby you're not going to make a fool out of me
TTITLE10=Mama's baby child
TTITLE11=So long
TTITLE12=I just don't care
TTITLE13=Honey babe
TTITLE14=Unpredictable woman
TTITLE15=See see rider
TTITLE16=Abilene
TTITLE17=Rollin' and rollin'
TTITLE18=Drinkin' woman
TTITLE19=Miss Loretta
TTITLE20=Shotgun
TTITLE21=Tell it like it is
TTITLE22=Lightnin's boogie
EXTD=
EXTT0=
EXTT1=
EXTT2=
EXTT3=
EXTT4=
EXTT5=
EXTT6=
EXTT7=
EXTT8=
EXTT9=
EXTT10=
EXTT11=
EXTT12=
EXTT13=
EXTT14=
EXTT15=
EXTT16=
EXTT17=
EXTT18=
EXTT19=
EXTT20=
EXTT21=
EXTT22=
PLAYORDER=
